<svg viewBox="1.8379 9.9378 131.1501 131.1501" xmlns="http://www.w3.org/2000/svg"
    style="background: #f0db4f;">
    <g transform="matrix(0.1000000014901161, 0, 0, -0.1000000014901161, 0, 149.99999999999997)"
        fill="#323330" stroke="none">
        <path
            d="M470 1368 c0 -19 31 -47 47 -41 9 4 16 -2 20 -15 2 -11 22 -34 44 -52 36 -28 56 -61 27 -44 -7 5 -2 -5 12 -22 14 -16 45 -53 69 -82 25 -29 50 -50 58 -48 7 3 15 0 19 -6 5 -7 2 -8 -6 -3 -8 5 -11 3 -8 -6 4 -13 58 -27 58 -15 0 18 -133 176 -213 254 -89 85 -127 109 -127 80z m263 -259 c7 -27 -4 -17 -42 38 l-34 48 35 -34 c20 -18 38 -42 41 -52z" />
        <path
            d="M48 1270 c-55 -43 -60 -40 224 -135 92 -31 193 -69 224 -85 31 -17 62 -30 69 -30 8 0 21 -7 30 -16 9 -9 27 -16 41 -16 13 0 24 -4 24 -9 0 -5 5 -9 10 -9 20 0 10 20 -17 34 -32 18 -25 21 10 5 27 -12 57 -52 32 -43 -9 4 -15 0 -15 -8 0 -8 -13 -24 -30 -36 -16 -12 -33 -34 -36 -47 -3 -14 -11 -25 -17 -25 -5 0 0 -9 13 -20 l23 -20 -31 0 c-19 0 -40 8 -52 20 -12 12 -33 20 -52 20 -23 0 -29 -3 -19 -9 8 -5 20 -7 28 -4 11 4 12 -1 7 -21 -4 -18 -2 -26 7 -26 7 0 9 -3 5 -7 -9 -9 -36 -13 -36 -5 -1 4 -11 20 -24 36 l-24 29 -37 -23 c-20 -12 -34 -24 -31 -27 2 -2 13 1 25 8 26 17 34 8 22 -25 -11 -28 4 -37 27 -14 15 15 28 3 15 -14 -6 -7 -13 -23 -16 -36 -4 -18 0 -25 19 -32 13 -5 24 -17 24 -27 1 -35 30 18 30 54 0 21 6 36 15 39 8 4 12 11 8 18 -3 6 -2 8 2 3 5 -4 17 1 28 10 20 17 20 17 12 -2 -5 -11 -9 -35 -10 -53 -1 -20 -12 -43 -29 -61 -20 -21 -24 -30 -14 -34 9 -4 8 -6 -4 -6 -22 -1 -45 -53 -52 -121 -3 -30 -9 -66 -13 -80 -3 -14 -2 -22 2 -18 5 4 15 2 24 -5 14 -10 14 -10 3 5 -13 16 -11 42 14 165 2 12 13 25 24 28 30 9 60 45 60 71 0 12 8 28 18 35 14 11 15 11 5 -1 -15 -16 -17 -30 -5 -30 13 0 32 48 32 80 0 22 5 30 18 30 14 0 17 -7 14 -45 -4 -40 -2 -45 17 -45 19 0 21 -6 22 -52 1 -29 3 -62 5 -73 2 -11 4 -37 6 -57 2 -28 7 -38 21 -38 9 0 17 1 17 3 -2 31 -41 221 -48 230 -14 19 -23 65 -28 148 -4 63 -2 78 11 83 18 7 27 -11 24 -45 -1 -13 -1 -59 -1 -102 2 -67 4 -78 19 -75 9 2 18 9 21 17 3 8 0 11 -7 7 -6 -4 -11 -3 -11 1 0 8 53 34 75 37 6 0 27 15 47 31 36 28 38 33 38 85 -1 46 -2 52 -12 35 -6 -11 -17 -24 -24 -30 -7 -5 -14 -23 -16 -40 -3 -26 -7 -30 -33 -30 -25 0 -30 -4 -30 -24 0 -15 -8 -27 -20 -32 -30 -12 -35 -10 -35 7 0 11 6 15 20 11 17 -4 20 0 20 29 0 24 -5 34 -15 34 -18 0 -20 26 -3 36 6 4 19 -3 30 -16 16 -20 22 -19 20 1 -1 4 6 6 16 5 18 -1 53 61 45 81 -3 7 7 18 22 25 21 10 23 13 10 20 -8 5 -20 6 -26 3 -5 -4 -16 -1 -24 5 -8 7 -23 9 -37 4 -13 -4 -36 -7 -51 -5 -17 1 -26 -3 -22 -9 9 -14 -38 5 -101 41 -55 31 -69 36 -58 17 4 -7 3 -8 -5 -4 -6 4 -9 11 -6 16 3 5 -8 16 -24 25 -36 18 -45 19 -35 3 4 -7 3 -8 -5 -4 -6 4 -9 11 -6 16 7 11 -168 115 -246 147 -88 35 -166 40 -201 13z m132 -15 c19 -17 20 -31 6 -54 -7 -10 -5 -12 5 -6 8 5 10 4 6 0 -11 -13 -37 -15 -37 -4 0 6 -4 8 -9 5 -5 -4 -19 -2 -31 2 l-21 8 20 18 c22 20 57 15 45 -6 -4 -9 -2 -8 7 1 11 10 11 15 1 18 -6 3 -10 9 -6 14 3 5 -6 9 -20 9 -13 0 -33 3 -43 6 -16 6 -16 5 2 -9 20 -16 20 -16 0 -31 -16 -12 -21 -12 -23 -1 -2 7 -11 11 -23 8 -15 -4 -18 -2 -13 12 14 37 98 43 134 10z m77 -18 c29 -11 30 -14 18 -31 -14 -18 -15 -18 -42 0 -30 20 -41 45 -20 43 6 0 26 -6 44 -12z m13 -79 c0 -5 5 -6 10 -3 6 4 8 10 5 15 -8 13 5 40 20 40 6 0 19 -8 29 -19 14 -15 14 -20 3 -30 -8 -6 -23 -9 -33 -5 -17 5 -17 4 1 -7 23 -15 87 -20 79 -7 -4 5 -12 7 -20 4 -7 -3 -16 -1 -19 4 -15 24 30 6 102 -40 90 -58 84 -65 -13 -16 -36 19 -72 32 -78 30 -7 -3 -26 1 -42 7 -16 7 -36 13 -45 15 -9 2 -29 9 -45 15 -27 10 -27 12 -9 19 11 5 14 9 8 9 -7 1 -13 6 -13 11 0 6 14 1 30 -12 17 -12 30 -26 30 -30z m341 -117 c5 -1 9 -31 4 -31 -1 0 -19 9 -41 19 l-39 19 35 -3 c19 -2 38 -4 41 -4z" />
        <path
            d="M1184 1112 c-59 -43 -124 -119 -124 -144 -1 -20 -2 -21 -11 -6 -14 25 -46 40 -70 33 -19 -6 -19 -7 5 -51 13 -24 21 -44 17 -44 -9 0 -51 56 -51 69 0 10 -19 9 -37 -2 -9 -6 -8 -14 3 -35 7 -15 14 -38 14 -52 0 -18 3 -21 9 -11 10 15 31 7 31 -13 0 -17 60 -76 77 -76 7 0 13 -5 13 -11 0 -23 25 -1 26 23 1 14 4 30 8 37 9 13 -11 71 -24 71 -4 0 -10 9 -13 21 -4 17 -3 18 9 8 12 -10 13 -9 8 5 -13 34 104 161 166 181 11 4 20 11 20 16 0 18 -38 9 -76 -19z m-166 -162 c3 -21 2 -22 -12 -11 -19 16 -21 44 -3 39 6 -3 14 -15 15 -28z m42 -102 c0 -5 -10 -8 -22 -6 -15 2 -24 11 -26 26 -4 23 -3 23 22 7 14 -10 26 -22 26 -27z" />
        <path
            d="M1170 978 c-128 -34 -119 -52 12 -22 41 9 87 14 109 10 42 -7 52 6 20 24 -26 14 -53 11 -141 -12z" />
        <path
            d="M940 820 c0 -24 -7 -35 -31 -48 -17 -9 -49 -32 -71 -49 -41 -34 -58 -41 -58 -23 0 6 7 10 15 10 8 0 15 4 15 10 0 5 19 24 43 41 23 17 46 37 51 46 4 8 -26 -10 -67 -42 l-75 -56 5 -57 c5 -41 13 -63 30 -82 27 -28 74 -116 93 -173 9 -30 15 -36 25 -27 11 9 8 22 -16 68 -16 31 -29 61 -29 65 0 5 -14 25 -30 46 -17 20 -33 48 -36 62 -3 13 -8 34 -11 47 -4 17 -1 22 15 22 12 0 26 8 31 18 5 9 37 33 70 52 41 22 60 39 56 48 -3 7 -5 22 -5 33 0 10 -4 19 -10 19 -5 0 -10 -14 -10 -30z" />
        <path d="M340 765 c-18 -22 -8 -27 29 -14 24 9 29 14 19 20 -19 13 -34 11 -48 -6z" />
        <path
            d="M297 698 c-21 -31 -31 -74 -23 -95 6 -14 11 -12 35 13 15 16 31 41 35 57 10 41 30 34 23 -8 -6 -36 1 -43 20 -24 8 8 14 1 24 -24 16 -45 54 -57 64 -20 3 14 0 31 -6 39 -28 34 -87 73 -121 79 -31 6 -38 4 -51 -17z" />
        <path
            d="M577 556 c-17 -71 -17 -73 4 -133 17 -51 20 -81 17 -172 -3 -97 -1 -111 13 -111 14 0 16 15 13 113 -1 71 -8 129 -19 160 -9 26 -13 52 -10 57 10 16 16 148 8 153 -4 3 -16 -27 -26 -67z" />
        <path
            d="M300 577 c-21 -11 -25 -20 -25 -57 0 -35 4 -45 18 -48 10 -2 17 3 17 13 0 9 16 23 37 32 36 15 38 14 60 -11 27 -32 55 -25 51 13 -2 20 -14 31 -48 47 l-45 22 -3 -29 c-2 -18 -9 -29 -19 -29 -11 0 -14 8 -11 30 5 34 3 35 -32 17z" />
        <path
            d="M316 457 l-29 -23 18 -37 c20 -43 88 -97 122 -97 16 0 23 -6 23 -18 0 -33 -30 -119 -45 -132 -17 -14 -20 -40 -5 -40 12 0 60 101 60 128 0 11 7 27 15 36 12 11 13 23 6 53 -8 33 -9 34 -10 10 -1 -40 -21 -23 -21 19 0 27 -4 34 -19 34 -11 0 -23 5 -27 11 -3 6 -14 -2 -25 -20 -20 -33 -39 -41 -39 -16 0 8 5 15 10 15 6 0 10 9 10 19 0 26 27 34 60 18 26 -14 27 -13 26 14 -1 16 -5 29 -11 29 -5 0 -20 3 -32 6 -17 5 -23 2 -23 -10 0 -22 -19 -20 -28 4 -7 19 -8 19 -36 -3z" />
        <path d="M810 930 c0 -20 -13 -40 -26 -40 c-14 0 -20 41 -8 53 c8 7 34 -3 34 -13z"
            fill="#3178c6" />
    </g>
</svg>