<svg viewBox="0 0 100 100" xmlns="http://www.w3.org/2000/svg">
    <rect width="100" height="100" fill="#f0db4f"></rect>
    <g fill="#323330" stroke="none"
        transform="matrix(0.7624851220090568, 0, 0, 0.7624851220090568, 0, 0)">
        <path
            d="m 45.1621 3.2622 c 0 1.9 3.1 4.7 4.7 4.1 c 0.9 -0.4 1.6 0.2 2 1.5 c 0.2 1.1 2.2 3.4 4.4 5.2 c 3.6 2.8 5.6 6.1 2.7 4.4 c -0.7 -0.5 -0.2 0.5 1.2 2.2 c 1.4 1.6 4.5 5.3 6.9 8.2 c 2.5 2.9 5 5 5.8 4.8 c 0.7 -0.3 1.5 0 1.9 0.6 c 0.5 0.7 0.2 0.8 -0.6 0.3 c -0.8 -0.5 -1.1 -0.3 -0.8 0.6 c 0.4 1.3 5.8 2.7 5.8 1.5 c 0 -1.8 -13.3 -17.6 -21.3 -25.4 c -8.9 -8.5 -12.7 -10.9 -12.7 -8 z m 26.3 25.9 c 0.7 2.7 -0.4 1.7 -4.2 -3.8 l -3.4 -4.8 l 3.5 3.4 c 2 1.8 3.8 4.2 4.1 5.2 z" />
        <path
            d="m 2.9621 13.0622 c -5.5 4.3 -6 4 22.4 13.5 c 9.2 3.1 19.3 6.9 22.4 8.5 c 3.1 1.7 6.2 3 6.9 3 c 0.8 0 2.1 0.7 3 1.6 c 0.9 0.9 2.7 1.6 4.1 1.6 c 1.3 0 2.4 0.4 2.4 0.9 c 0 0.5 0.5 0.9 1 0.9 c 2 0 1 -2 -1.7 -3.4 c -3.2 -1.8 -2.5 -2.1 1 -0.5 c 2.7 1.2 5.7 5.2 3.2 4.3 c -0.9 -0.4 -1.5 0 -1.5 0.8 c 0 0.8 -1.3 2.4 -3 3.6 c -1.6 1.2 -3.3 3.4 -3.6 4.7 c -0.3 1.4 -1.1 2.5 -1.7 2.5 c -0.5 0 0 0.9 1.3 2 l 2.3 2 l -3.1 0 c -1.9 0 -4 -0.8 -5.2 -2 c -1.2 -1.2 -3.3 -2 -5.2 -2 c -2.3 0 -2.9 0.3 -1.9 0.9 c 0.8 0.5 2 0.7 2.8 0.4 c 1.1 -0.4 1.2 0.1 0.7 2.1 c -0.4 1.8 -0.2 2.6 0.7 2.6 c 0.7 0 0.9 0.3 0.5 0.7 c -0.9 0.9 -3.6 1.3 -3.6 0.5 c -0.1 -0.4 -1.1 -2 -2.4 -3.6 l -2.4 -2.9 l -3.7 2.3 c -2 1.2 -3.4 2.4 -3.1 2.7 c 0.2 0.2 1.3 -0.1 2.5 -0.8 c 2.6 -1.7 3.4 -0.8 2.2 2.5 c -1.1 2.8 0.4 3.7 2.7 1.4 c 1.5 -1.5 2.8 -0.3 1.5 1.4 c -0.6 0.7 -1.3 2.3 -1.6 3.6 c -0.4 1.8 0 2.5 1.9 3.2 c 1.3 0.5 2.4 1.7 2.4 2.7 c 0.1 3.5 3 -1.8 3 -5.4 c 0 -2.1 0.6 -3.6 1.5 -3.9 c 0.8 -0.4 1.2 -1.1 0.8 -1.8 c -0.3 -0.6 -0.2 -0.8 0.2 -0.3 c 0.5 0.4 1.7 -0.1 2.8 -1 c 2 -1.7 2 -1.7 1.2 0.2 c -0.5 1.1 -0.9 3.5 -1 5.3 c -0.1 2 -1.2 4.3 -2.9 6.1 c -2 2.1 -2.4 3 -1.4 3.4 c 0.9 0.4 0.8 0.6 -0.4 0.6 c -2.2 0.1 -4.5 5.3 -5.2 12.1 c -0.3 3 -0.9 6.6 -1.3 8 c -0.3 1.4 -0.2 2.2 0.2 1.8 c 0.5 -0.4 1.5 -0.2 2.4 0.5 c 1.4 1 1.4 1 0.3 -0.5 c -1.3 -1.6 -1.1 -4.2 1.4 -16.5 c 0.2 -1.2 1.3 -2.5 2.4 -2.8 c 3 -0.9 6 -4.5 6 -7.1 c 0 -1.2 0.8 -2.8 1.8 -3.5 c 1.4 -1.1 1.5 -1.1 0.5 0.1 c -1.5 1.6 -1.7 3 -0.5 3 c 1.3 0 3.2 -4.8 3.2 -8 c 0 -2.2 0.5 -3 1.8 -3 c 1.4 0 1.7 0.7 1.4 4.5 c -0.4 4 -0.2 4.5 1.7 4.5 c 1.9 0 2.1 0.6 2.2 5.2 c 0.1 2.9 0.3 6.2 0.5 7.3 c 0.2 1.1 0.4 3.7 0.6 5.7 c 0.2 2.8 0.7 3.8 2.1 3.8 c 0.9 0 1.7 -0.1 1.7 -0.3 c -0.2 -3.1 -4.1 -22.1 -4.8 -23 c -1.4 -1.9 -2.3 -6.5 -2.8 -14.8 c -0.4 -6.3 -0.2 -7.8 1.1 -8.3 c 1.8 -0.7 2.7 1.1 2.4 4.5 c -0.1 1.3 -0.1 5.9 -0.1 10.2 c 0.2 6.7 0.4 7.8 1.9 7.5 c 0.9 -0.2 1.8 -0.9 2.1 -1.7 c 0.3 -0.8 0 -1.1 -0.7 -0.7 c -0.6 0.4 -1.1 0.3 -1.1 -0.1 c 0 -0.8 5.3 -3.4 7.5 -3.7 c 0.6 0 2.7 -1.5 4.7 -3.1 c 3.6 -2.8 3.8 -3.3 3.8 -8.5 c -0.1 -4.6 -0.2 -5.2 -1.2 -3.5 c -0.6 1.1 -1.7 2.4 -2.4 3 c -0.7 0.5 -1.4 2.3 -1.6 4 c -0.3 2.6 -0.7 3 -3.3 3 c -2.5 0 -3 0.4 -3 2.4 c 0 1.5 -0.8 2.7 -2 3.2 c -3 1.2 -3.5 1 -3.5 -0.7 c 0 -1.1 0.6 -1.5 2 -1.1 c 1.7 0.4 2 0 2 -2.9 c 0 -2.4 -0.5 -3.4 -1.5 -3.4 c -1.8 0 -2 -2.6 -0.3 -3.6 c 0.6 -0.4 1.9 0.3 3 1.6 c 1.6 2 2.2 1.9 2 -0.1 c -0.1 -0.4 0.6 -0.6 1.6 -0.5 c 1.8 0.1 5.3 -6.1 4.5 -8.1 c -0.3 -0.7 0.7 -1.8 2.2 -2.5 c 2.1 -1 2.3 -1.3 1 -2 c -0.8 -0.5 -2 -0.6 -2.6 -0.3 c -0.5 0.4 -1.6 0.1 -2.4 -0.5 c -0.8 -0.7 -2.3 -0.9 -3.7 -0.4 c -1.3 0.4 -3.6 0.7 -5.1 0.5 c -1.7 -0.1 -2.6 0.3 -2.2 0.9 c 0.9 1.4 -3.8 -0.5 -10.1 -4.1 c -5.5 -3.1 -6.9 -3.6 -5.8 -1.7 c 0.4 0.7 0.3 0.8 -0.5 0.4 c -0.6 -0.4 -0.9 -1.1 -0.6 -1.6 c 0.3 -0.5 -0.8 -1.6 -2.4 -2.5 c -3.6 -1.8 -4.5 -1.9 -3.5 -0.3 c 0.4 0.7 0.3 0.8 -0.5 0.4 c -0.6 -0.4 -0.9 -1.1 -0.6 -1.6 c 0.7 -1.1 -16.8 -11.5 -24.6 -14.7 c -8.8 -3.5 -16.6 -4 -20.1 -1.3 z m 13.2 1.5 c 1.9 1.7 2 3.1 0.6 5.4 c -0.7 1 -0.5 1.2 0.5 0.6 c 0.8 -0.5 1 -0.4 0.6 0 c -1.1 1.3 -3.7 1.5 -3.7 0.4 c 0 -0.6 -0.4 -0.8 -0.9 -0.5 c -0.5 0.4 -1.9 0.2 -3.1 -0.2 l -2.1 -0.8 l 2 -1.8 c 2.2 -2 5.7 -1.5 4.5 0.6 c -0.4 0.9 -0.2 0.8 0.7 -0.1 c 1.1 -1 1.1 -1.5 0.1 -1.8 c -0.6 -0.3 -1 -0.9 -0.6 -1.4 c 0.3 -0.5 -0.6 -0.9 -2 -0.9 c -1.3 0 -3.3 -0.3 -4.3 -0.6 c -1.6 -0.6 -1.6 -0.5 0.2 0.9 c 2 1.6 2 1.6 0 3.1 c -1.6 1.2 -2.1 1.2 -2.3 0.1 c -0.2 -0.7 -1.1 -1.1 -2.3 -0.8 c -1.5 0.4 -1.8 0.2 -1.3 -1.2 c 1.4 -3.7 9.8 -4.3 13.4 -1 z m 7.7 1.8 c 2.9 1.1 3 1.4 1.8 3.1 c -1.4 1.8 -1.5 1.8 -4.2 0 c -3 -2 -4.1 -4.5 -2 -4.3 c 0.6 0 2.6 0.6 4.4 1.2 z m 1.3 7.9 c 0 0.5 0.5 0.6 1 0.3 c 0.6 -0.4 0.8 -1 0.5 -1.5 c -0.8 -1.3 0.5 -4 2 -4 c 0.6 0 1.9 0.8 2.9 1.9 c 1.4 1.5 1.4 2 0.3 3 c -0.8 0.6 -2.3 0.9 -3.3 0.5 c -1.7 -0.5 -1.7 -0.4 0.1 0.7 c 2.3 1.5 8.7 2 7.9 0.7 c -0.4 -0.5 -1.2 -0.7 -2 -0.4 c -0.7 0.3 -1.6 0.1 -1.9 -0.4 c -1.5 -2.4 3 -0.6 10.2 4 c 9 5.8 8.4 6.5 -1.3 1.6 c -3.6 -1.9 -7.2 -3.2 -7.8 -3 c -0.7 0.3 -2.6 -0.1 -4.2 -0.7 c -1.6 -0.7 -3.6 -1.3 -4.5 -1.5 c -0.9 -0.2 -2.9 -0.9 -4.5 -1.5 c -2.7 -1 -2.7 -1.2 -0.9 -1.9 c 1.1 -0.5 1.4 -0.9 0.8 -0.9 c -0.7 -0.1 -1.3 -0.6 -1.3 -1.1 c 0 -0.6 1.4 -0.1 3 1.2 c 1.7 1.2 3 2.6 3 3 z m 34.1 11.7 c 0.5 0.1 0.9 3.1 0.4 3.1 c -0.1 0 -1.9 -0.9 -4.1 -1.9 l -3.9 -1.9 l 3.5 0.3 c 1.9 0.2 3.8 0.4 4.1 0.4 z" />
        <path
            d="m 116.5621 28.8622 c -5.9 4.3 -12.4 11.9 -12.4 14.4 c -0.1 2 -0.2 2.1 -1.1 0.6 c -1.4 -2.5 -4.6 -4 -7 -3.3 c -1.9 0.6 -1.9 0.7 0.5 5.1 c 1.3 2.4 2.1 4.4 1.7 4.4 c -0.9 0 -5.1 -5.6 -5.1 -6.9 c 0 -1 -1.9 -0.9 -3.7 0.2 c -0.9 0.6 -0.8 1.4 0.3 3.5 c 0.7 1.5 1.4 3.8 1.4 5.2 c 0 1.8 0.3 2.1 0.9 1.1 c 1 -1.5 3.1 -0.7 3.1 1.3 c 0 1.7 6 7.6 7.7 7.6 c 0.7 0 1.3 0.5 1.3 1.1 c 0 2.3 2.5 0.1 2.6 -2.3 c 0.1 -1.4 0.4 -3 0.8 -3.7 c 0.9 -1.3 -1.1 -7.1 -2.4 -7.1 c -0.4 0 -1 -0.9 -1.3 -2.1 c -0.4 -1.7 -0.3 -1.8 0.9 -0.8 c 1.2 1 1.3 0.9 0.8 -0.5 c -1.3 -3.4 10.4 -16.1 16.6 -18.1 c 1.1 -0.4 2 -1.1 2 -1.6 c 0 -1.8 -3.8 -0.9 -7.6 1.9 z m -16.6 16.2 c 0.3 2.1 0.2 2.2 -1.2 1.1 c -1.9 -1.6 -2.1 -4.4 -0.3 -3.9 c 0.6 0.3 1.4 1.5 1.5 2.8 z" />
        <path
            d="m 115.1621 42.2622 c -12.8 3.4 -11.9 5.2 1.2 2.2 c 4.1 -0.9 8.7 -1.4 10.9 -1 c 4.2 0.7 5.2 -0.6 2 -2.4 c -2.6 -1.4 -5.3 -1.1 -14.1 1.2 z" />
        <path
            d="m 92.1621 58.0622 c 0 2.4 -0.7 3.5 -3.1 4.8 c -1.7 0.9 -4.9 3.2 -7.1 4.9 c -4.1 3.4 -5.8 4.1 -5.8 2.3 c 0 -0.6 0.7 -1 1.5 -1 c 0.8 0 1.5 -0.4 1.5 -1 c 0 -0.5 1.9 -2.4 4.3 -4.1 c 2.3 -1.7 4.6 -3.7 5.1 -4.6 c 0.4 -0.8 -2.6 1 -6.7 4.2 l -7.5 5.6 l 0.5 5.7 c 0.5 4.1 1.3 6.3 3 8.2 c 2.7 2.8 7.4 11.6 9.3 17.3 c 0.9 3 1.5 3.6 2.5 2.7 c 1.1 -0.9 0.8 -2.2 -1.6 -6.8 c -1.6 -3.1 -2.9 -6.1 -2.9 -6.5 c 0 -0.5 -1.4 -2.5 -3 -4.6 c -1.7 -2 -3.3 -4.8 -3.6 -6.2 c -0.3 -1.3 -0.8 -3.4 -1.1 -4.7 c -0.4 -1.7 -0.1 -2.2 1.5 -2.2 c 1.2 0 2.6 -0.8 3.1 -1.8 c 0.5 -0.9 3.7 -3.3 7 -5.2 c 4.1 -2.2 6 -3.9 5.6 -4.8 c -0.3 -0.7 -0.5 -2.2 -0.5 -3.3 c 0 -1 -0.4 -1.9 -1 -1.9 c -0.5 0 -1 1.4 -1 3 z" />
        <path
            d="m 32.1621 63.5622 c -1.8 2.2 -0.8 2.7 2.9 1.4 c 2.4 -0.9 2.9 -1.4 1.9 -2 c -1.9 -1.3 -3.4 -1.1 -4.8 0.6 z" />
        <path
            d="m 27.8621 70.2622 c -2.1 3.1 -3.1 7.4 -2.3 9.5 c 0.6 1.4 1.1 1.2 3.5 -1.3 c 1.5 -1.6 3.1 -4.1 3.5 -5.7 c 1 -4.1 3 -3.4 2.3 0.8 c -0.6 3.6 0.1 4.3 2 2.4 c 0.8 -0.8 1.4 -0.1 2.4 2.4 c 1.6 4.5 5.4 5.7 6.4 2 c 0.3 -1.4 0 -3.1 -0.6 -3.9 c -2.8 -3.4 -8.7 -7.3 -12.1 -7.9 c -3.1 -0.6 -3.8 -0.4 -5.1 1.7 z" />
        <path
            d="m 55.8621 84.4622 c -1.7 7.1 -1.7 7.3 0.4 13.3 c 1.7 5.1 2 8.1 1.7 17.2 c -0.3 9.7 -0.1 11.1 1.3 11.1 c 1.4 0 1.6 -1.5 1.3 -11.3 c -0.1 -7.1 -0.8 -12.9 -1.9 -16 c -0.9 -2.6 -1.3 -5.2 -1 -5.7 c 1 -1.6 1.6 -14.8 0.8 -15.3 c -0.4 -0.3 -1.6 2.7 -2.6 6.7 z" />
        <path
            d="m 28.1621 82.3622 c -2.1 1.1 -2.5 2 -2.5 5.7 c 0 3.5 0.4 4.5 1.8 4.8 c 1 0.2 1.7 -0.3 1.7 -1.3 c 0 -0.9 1.6 -2.3 3.7 -3.2 c 3.6 -1.5 3.8 -1.4 6 1.1 c 2.7 3.2 5.5 2.5 5.1 -1.3 c -0.2 -2 -1.4 -3.1 -4.8 -4.7 l -4.5 -2.2 l -0.3 2.9 c -0.2 1.8 -0.9 2.9 -1.9 2.9 c -1.1 0 -1.4 -0.8 -1.1 -3 c 0.5 -3.4 0.3 -3.5 -3.2 -1.7 z" />
        <path
            d="m 29.7621 94.3622 l -2.9 2.3 l 1.8 3.7 c 2 4.3 8.8 9.7 12.2 9.7 c 1.6 0 2.3 0.6 2.3 1.8 c 0 3.3 -3 11.9 -4.5 13.2 c -1.7 1.4 -2 4 -0.5 4 c 1.2 0 6 -10.1 6 -12.8 c 0 -1.1 0.7 -2.7 1.5 -3.6 c 1.2 -1.1 1.3 -2.3 0.6 -5.3 c -0.8 -3.3 -0.9 -3.4 -1 -1 c -0.1 4 -2.1 2.3 -2.1 -1.9 c 0 -2.7 -0.4 -3.4 -1.9 -3.4 c -1.1 0 -2.3 -0.5 -2.7 -1.1 c -0.3 -0.6 -1.4 0.2 -2.5 2 c -2 3.3 -3.9 4.1 -3.9 1.6 c 0 -0.8 0.5 -1.5 1 -1.5 c 0.6 0 1 -0.9 1 -1.9 c 0 -2.6 2.7 -3.4 6 -1.8 c 2.6 1.4 2.7 1.3 2.6 -1.4 c -0.1 -1.6 -0.5 -2.9 -1.1 -2.9 c -0.5 0 -2 -0.3 -3.2 -0.6 c -1.7 -0.5 -2.3 -0.2 -2.3 1 c 0 2.2 -1.9 2 -2.8 -0.4 c -0.7 -1.9 -0.8 -1.9 -3.6 0.3 z" />
        <path
            d="m 79.1621 47.0622 c 0 2 -1.3 4 -2.6 4 c -1.4 0 -2 -4.1 -0.8 -5.3 c 0.8 -0.7 3.4 0.3 3.4 1.3 z"
            fill="#3178c6" />
        <path
            d="m 104.1621 55.2622 c 0 0.5 -1 0.8 -2.2 0.6 c -1.5 -0.2 -2.4 -1.1 -2.6 -2.6 c -0.4 -2.3 -0.3 -2.3 2.2 -0.7 c 1.4 1 2.6 2.2 2.6 2.7 z"
            fill="#dd1b16"></path>
    </g>
</svg>